#!OML:ASF H:\Dans Jumps\Project 1\Capture day 1\Session 1\subject.ASF
:FULLY-SPECIFIED
:DEGREES
237
root 0.505546 15.9105 -11.1059 27.1673 4.92544 -1.86244
lowerback 21.4098 0.0748935 -0.510265
upperback -1.11841 0.31922 2.58771
thorax -13.3773 0.307095 3.11571
lowerneck -20.3395 -1.42931 -2.19023
upperneck 3.91049 -1.48829 1.42664
head 4.4129 -0.676353 0.657365
rclavicle 1.39149e-015 -7.15625e-015
rhumerus -1.49706 4.84684 -71.3072
rradius 48.5164
rwrist 22.2108
rhand -20.8673 -26.4592
rfingers 7.12502
rthumb 5.50251 -56.3678
lclavicle 1.39149e-015 -7.15625e-015
lhumerus 3.69262 -14.3528 68.1014
lradius 39.6
lwrist 22.0395
lhand -29.4246 -9.96984
lfingers 7.12502
lthumb -2.76174 19.992
rfemur -41.7805 -3.93325 22.5153
rtibia 56.5312
rfoot -31.934 -20.8071
rtoes -19.6246
lfemur -43.7861 9.60284 -18.6996
ltibia 56.9506
lfoot -26.3844 21.0611
ltoes -32.0806
238
root 0.526563 16.0791 -10.7712 26.1735 4.76537 -1.76014
lowerback 19.7876 0.0357123 -0.492765
upperback -1.28157 0.236628 2.40973
thorax -12.6215 0.250347 2.90609
lowerneck -19.4839 -1.39413 -2.14103
upperneck 5.23244 -1.47456 1.34634
head 4.69893 -0.679072 0.626193
rclavicle 1.33186e-014 6.55989e-015
rhumerus -1.75861 4.86571 -71.3712
rradius 48.4653
rwrist 22.2552
rhand -20.7244 -26.1519
rfingers 7.12502
rthumb 5.64045 -56.0569
lclavicle 1.33186e-014 6.55989e-015
lhumerus 3.26545 -14.9543 67.8884
lradius 40.4825
lwrist 22.2819
lhand -29.0239 -9.69054
lfingers 7.12502
lthumb -2.37479 20.276
rfemur -38.1554 -4.45925 22.2848
rtibia 54.0074
rfoot -30.6161 -19.7986
rtoes -21.0807
lfemur -40.1017 10.3005 -18.6278
ltibia 54.3924
lfoot -25.2548 19.9523
ltoes -33.1679
239
root 0.548482 16.2543 -10.4232 25.1455 4.56498 -1.66607
lowerback 17.9993 0.0111376 -0.484609
upperback -1.39485 0.170658 2.22525
thorax -11.7099 0.200475 2.68854
lowerneck -18.4521 -1.34831 -2.07702
upperneck 6.51052 -1.451 1.25953
head 4.94128 -0.677537 0.592675
rclavicle -1.00386e-014 -9.34288e-015
rhumerus -2.13897 4.74351 -71.5713
rradius 48.1315
rwrist 22.5589
rhand -20.5763 -25.8064
rfingers 7.12502
rthumb 5.78343 -55.7075
lclavicle -1.00386e-014 -9.34288e-015
lhumerus 2.6105 -15.4463 67.816
lradius 41.2013
lwrist 22.7245
lhand -28.5678 -9.45692
lfingers 7.12502
lthumb -1.93432 20.5141
rfemur -34.5044 -5.03878 22.0243
rtibia 51.466
rfoot -28.9319 -18.5523
rtoes -22.6387
lfemur -36.325 11.05 -18.472
ltibia 51.7303
lfoot -23.8643 18.4843
ltoes -34.3046
240
root 0.571233 16.4391 -10.0626 24.0728 4.32655 -1.58962
lowerback 16.0897 -0.00186508 -0.492326
upperback -1.45295 0.120009 2.05426
thorax -10.6659 0.158987 2.49185
lowerneck -17.3066 -1.29302 -2.03954
upperneck 7.79456 -1.41026 1.1871
head 5.16444 -0.667515 0.570306
rclavicle -4.67144e-015 -7.55382e-015
rhumerus -2.61388 4.5694 -71.8655
rradius 47.5885
rwrist 23.0552
rhand -20.4588 -25.4262
rfingers 7.12502
rthumb 5.89685 -55.3241
lclavicle -4.67144e-015 -7.55382e-015
lhumerus 1.75843 -15.8794 67.8612
lradius 41.7541
lwrist 23.4066
lhand -28.1017 -9.28995
lfingers 7.12502
lthumb -1.48412 20.6846
rfemur -30.7195 -5.65663 21.7243
rtibia 48.6289
rfoot -26.6425 -16.9984
rtoes -24.2389
lfemur -32.3374 11.798 -18.1984
ltibia 48.674
lfoot -22.008 16.4955
ltoes -35.4181
241
root 0.595294 16.6357 -9.69105 22.9412 4.06475 -1.52693
lowerback 14.1281 -0.0114326 -0.508715
upperback -1.45347 0.0778538 1.90789
thorax -9.53045 0.123175 2.32751
lowerneck -16.1091 -1.22645 -2.04081
upperneck 9.12283 -1.34602 1.12192
head 5.38962 -0.647025 0.55904
rclavicle 3.47873e-015 6.55989e-015
rhumerus -3.15405 4.41938 -72.2084
rradius 46.8882
rwrist 23.6474
rhand -20.3798 -25.0461
rfingers 7.12502
rthumb 5.97317 -54.9419
lclavicle 3.47873e-015 6.55989e-015
lhumerus 0.764964 -16.2923 68.0012
lradius 42.1135
lwrist 24.2842
lhand -27.5888 -9.17178
lfingers 7.12502
lthumb -0.988814 20.8057
rfemur -26.9154 -6.28607 21.3612
rtibia 45.7785
rfoot -23.8402 -15.1754
rtoes -25.8001
lfemur -28.2517 12.4414 -17.7949
ltibia 45.5041
lfoot -19.7647 14.0302
ltoes -36.4416
242
root 0.620717 16.8464 -9.31103 21.7512 3.79222 -1.47336
lowerback 12.1862 -0.0231156 -0.524117
upperback -1.40482 0.0391312 1.78986
thorax -8.35749 0.0905735 2.19574
lowerneck -14.9239 -1.1457 -2.08244
upperneck 10.5314 -1.2524 1.05367
head 5.63864 -0.614522 0.556097
rclavicle 6.95746e-016 1.15295e-014
rhumerus -3.7443 4.3467 -72.5659
rradius 46.0768
rwrist 24.2314
rhand -20.3384 -24.6823
rfingers 7.12502
rthumb 6.01309 -54.577
lclavicle 6.95746e-016 1.15295e-014
lhumerus -0.31773 -16.7087 68.2215
lradius 42.2534
lwrist 25.2205
lhand -27.0366 -9.03763
lfingers 7.12502
lthumb -0.455426 20.9416
rfemur -23.1329 -6.86205 20.9181
rtibia 42.9387
rfoot -20.4365 -13.1415
rtoes -27.2124
lfemur -24.116 12.8567 -17.2736
ltibia 42.2473
lfoot -17.0064 11.093
ltoes -37.2518
243
root 0.647521 17.0733 -8.92539 20.5227 3.5226 -1.42047
lowerback 10.3225 -0.0397915 -0.523849
upperback -1.32636 0.00086201 1.69361
thorax -7.2032 0.0592265 2.08163
lowerneck -13.7776 -1.05263 -2.14618
upperneck 12.0142 -1.13332 0.966963
head 5.91457 -0.573011 0.553235
rclavicle -3.57812e-015 1.55052e-014
rhumerus -4.37932 4.36424 -72.9179
rradius 45.1788
rwrist 24.7411
rhand -20.3155 -24.3251
rfingers 7.12502
rthumb 6.03525 -54.2192
lclavicle -3.57812e-015 1.55052e-014
lhumerus -1.45832 -17.1538 68.5128
lradius 42.1691
lwrist 26.0469
lhand -26.4642 -8.84712
lfingers 7.12502
lthumb 0.0973849 21.1326
rfemur -19.4427 -7.29674 20.3889
rtibia 40.1494
rfoot -16.3677 -11.0016
rtoes -28.1168
lfemur -20.0164 12.9171 -16.682
ltibia 38.9446
lfoot -13.5393 7.80334
ltoes -37.6755
244
root 0.674993 17.3172 -8.5376 19.2888 3.25218 -1.36243
lowerback 8.57689 -0.0543415 -0.504153
upperback -1.23764 -0.0293583 1.60662
thorax -6.11179 0.0328372 1.96833
lowerneck -12.6973 -0.952934 -2.21247
upperneck 13.5466 -0.998643 0.85919
head 6.21543 -0.527053 0.545455
rclavicle 9.74045e-015 -2.38542e-015
rhumerus -5.06082 4.44073 -73.2587
rradius 44.2325
rwrist 25.151
rhand -20.2774 -23.9766
rfingers 7.12502
rthumb 6.07201 -53.8696
lclavicle 9.74045e-015 -2.38542e-015
lhumerus -2.64296 -17.6347 68.8666
lradius 41.8949
lwrist 26.6019
lhand -25.8914 -8.59375
lfingers 7.12502
lthumb 0.650654 21.385
rfemur -15.9423 -7.48927 19.7926
rtibia 37.4745
rfoot -11.5844 -8.96458
rtoes -28.1064
lfemur -16.0656 12.553 -16.0984
ltibia 35.6551
lfoot -9.12788 4.4751
ltoes -37.5721
